<svg id="visual" viewBox="0 0 960 200" width="960" height="200" xmlns="http://www.w3.org/2000/svg" xmlns:xlink="http://www.w3.org/1999/xlink" version="1.1"><rect x="0" y="0" width="960" height="200" fill="#ffffff"></rect><path d="M0 75L22.8 83C45.7 91 91.3 107 137 118.8C182.7 130.7 228.3 138.3 274 127.8C319.7 117.3 365.3 88.7 411.2 84C457 79.3 503 98.7 548.8 112C594.7 125.3 640.3 132.7 686 128.8C731.7 125 777.3 110 823 97.5C868.7 85 914.3 75 937.2 70L960 65L960 201L937.2 201C914.3 201 868.7 201 823 201C777.3 201 731.7 201 686 201C640.3 201 594.7 201 548.8 201C503 201 457 201 411.2 201C365.3 201 319.7 201 274 201C228.3 201 182.7 201 137 201C91.3 201 45.7 201 22.8 201L0 201Z" fill="#ff5e7e" stroke-linecap="round" stroke-linejoin="miter"></path></svg>