<svg class="border shadow-md dark:border-slate-700" viewBox="0 0 507.76 507.76" xmlns="http://www.w3.org/2000/svg" preserveAspectRatio="none" style="width: 507.76px; height: 507.76px;"><rect class="bg" id="bg" x="0" y="0" width="507.76" height="507.76" fill="#ffffff"></rect><rect x="0" y="0" width="14.623488" height="14.623488" rx="3.858976" fill="#EBEBEB"></rect><rect x="20.3104" y="0" width="14.623488" height="14.623488" rx="3.858976" fill="#D0D0D0"></rect><rect x="40.6208" y="0" width="14.623488" height="14.623488" rx="3.858976" fill="#787878"></rect><rect x="60.931200000000004" y="0" width="14.623488" height="14.623488" rx="3.858976" fill="#D0D0D0"></rect><rect x="81.2416" y="0" width="14.623488" height="14.623488" rx="3.858976" fill="#9D9D9D"></rect><rect x="101.552" y="0" width="14.623488" height="14.623488" rx="3.858976" fill="#EBEBEB"></rect><rect x="121.86240000000001" y="0" width="14.623488" height="14.623488" rx="3.858976" fill="#9D9D9D"></rect><rect x="142.1728" y="0" width="14.623488" height="14.623488" rx="3.858976" fill="#D0D0D0"></rect><rect x="162.4832" y="0" width="14.623488" height="14.623488" rx="3.858976" fill="#EBEBEB"></rect><rect x="182.79360000000003" y="0" width="14.623488" height="14.623488" rx="3.858976" fill="#EBEBEB"></rect><rect x="203.104" y="0" width="14.623488" height="14.623488" rx="3.858976" fill="#787878"></rect><rect x="223.4144" y="0" width="14.623488" height="14.623488" rx="3.858976" fill="#D0D0D0"></rect><rect x="243.72480000000002" y="0" width="14.623488" height="14.623488" rx="3.858976" fill="#EBEBEB"></rect><rect x="264.03520000000003" y="0" width="14.623488" height="14.623488" rx="3.858976" fill="#EBEBEB"></rect><rect x="284.3456" y="0" width="14.623488" height="14.623488" rx="3.858976" fill="#EBEBEB"></rect><rect x="304.656" y="0" width="14.623488" height="14.623488" rx="3.858976" fill="#D0D0D0"></rect><rect x="324.9664" y="0" width="14.623488" height="14.623488" rx="3.858976" fill="#D0D0D0"></rect><rect x="345.27680000000004" y="0" width="14.623488" height="14.623488" rx="3.858976" fill="#D0D0D0"></rect><rect x="365.58720000000005" y="0" width="14.623488" height="14.623488" rx="3.858976" fill="#D0D0D0"></rect><rect x="385.8976" y="0" width="14.623488" height="14.623488" rx="3.858976" fill="#787878"></rect><rect x="406.208" y="0" width="14.623488" height="14.623488" rx="3.858976" fill="#EBEBEB"></rect><rect x="426.51840000000004" y="0" width="14.623488" height="14.623488" rx="3.858976" fill="#9D9D9D"></rect><rect x="446.8288" y="0" width="14.623488" height="14.623488" rx="3.858976" fill="#D0D0D0"></rect><rect x="467.1392" y="0" width="14.623488" height="14.623488" rx="3.858976" fill="#D0D0D0"></rect><rect x="487.44960000000003" y="0" width="14.623488" height="14.623488" rx="3.858976" fill="#D0D0D0"></rect><rect x="0" y="20.3104" width="14.623488" height="14.623488" rx="3.858976" fill="#787878"></rect><rect x="20.3104" y="20.3104" width="14.623488" height="14.623488" rx="3.858976" fill="#9D9D9D"></rect><rect x="40.6208" y="20.3104" width="14.623488" height="14.623488" rx="3.858976" fill="#D0D0D0"></rect><rect x="60.931200000000004" y="20.3104" width="14.623488" height="14.623488" rx="3.858976" fill="#EBEBEB"></rect><rect x="81.2416" y="20.3104" width="14.623488" height="14.623488" rx="3.858976" fill="#EBEBEB"></rect><rect x="101.552" y="20.3104" width="14.623488" height="14.623488" rx="3.858976" fill="#787878"></rect><rect x="121.86240000000001" y="20.3104" width="14.623488" height="14.623488" rx="3.858976" fill="#787878"></rect><rect x="142.1728" y="20.3104" width="14.623488" height="14.623488" rx="3.858976" fill="#9D9D9D"></rect><rect x="162.4832" y="20.3104" width="14.623488" height="14.623488" rx="3.858976" fill="#D0D0D0"></rect><rect x="182.79360000000003" y="20.3104" width="14.623488" height="14.623488" rx="3.858976" fill="#787878"></rect><rect x="203.104" y="20.3104" width="14.623488" height="14.623488" rx="3.858976" fill="#D0D0D0"></rect><rect x="223.4144" y="20.3104" width="14.623488" height="14.623488" rx="3.858976" fill="#787878"></rect><rect x="243.72480000000002" y="20.3104" width="14.623488" height="14.623488" rx="3.858976" fill="#D0D0D0"></rect><rect x="264.03520000000003" y="20.3104" width="14.623488" height="14.623488" rx="3.858976" fill="#9D9D9D"></rect><rect x="284.3456" y="20.3104" width="14.623488" height="14.623488" rx="3.858976" fill="#9D9D9D"></rect><rect x="304.656" y="20.3104" width="14.623488" height="14.623488" rx="3.858976" fill="#D0D0D0"></rect><rect x="324.9664" y="20.3104" width="14.623488" height="14.623488" rx="3.858976" fill="#D0D0D0"></rect><rect x="345.27680000000004" y="20.3104" width="14.623488" height="14.623488" rx="3.858976" fill="#787878"></rect><rect x="365.58720000000005" y="20.3104" width="14.623488" height="14.623488" rx="3.858976" fill="#787878"></rect><rect x="385.8976" y="20.3104" width="14.623488" height="14.623488" rx="3.858976" fill="#9D9D9D"></rect><rect x="406.208" y="20.3104" width="14.623488" height="14.623488" rx="3.858976" fill="#EBEBEB"></rect><rect x="426.51840000000004" y="20.3104" width="14.623488" height="14.623488" rx="3.858976" fill="#EBEBEB"></rect><rect x="446.8288" y="20.3104" width="14.623488" height="14.623488" rx="3.858976" fill="#787878"></rect><rect x="467.1392" y="20.3104" width="14.623488" height="14.623488" rx="3.858976" fill="#9D9D9D"></rect><rect x="487.44960000000003" y="20.3104" width="14.623488" height="14.623488" rx="3.858976" fill="#787878"></rect><rect x="0" y="40.6208" width="14.623488" height="14.623488" rx="3.858976" fill="#D0D0D0"></rect><rect x="20.3104" y="40.6208" width="14.623488" height="14.623488" rx="3.858976" fill="#787878"></rect><rect x="40.6208" y="40.6208" width="14.623488" height="14.623488" rx="3.858976" fill="#EBEBEB"></rect><rect x="60.931200000000004" y="40.6208" width="14.623488" height="14.623488" rx="3.858976" fill="#D0D0D0"></rect><rect x="81.2416" y="40.6208" width="14.623488" height="14.623488" rx="3.858976" fill="#787878"></rect><rect x="101.552" y="40.6208" width="14.623488" height="14.623488" rx="3.858976" fill="#9D9D9D"></rect><rect x="121.86240000000001" y="40.6208" width="14.623488" height="14.623488" rx="3.858976" fill="#9D9D9D"></rect><rect x="142.1728" y="40.6208" width="14.623488" height="14.623488" rx="3.858976" fill="#EBEBEB"></rect><rect x="162.4832" y="40.6208" width="14.623488" height="14.623488" rx="3.858976" fill="#EBEBEB"></rect><rect x="182.79360000000003" y="40.6208" width="14.623488" height="14.623488" rx="3.858976" fill="#D0D0D0"></rect><rect x="203.104" y="40.6208" width="14.623488" height="14.623488" rx="3.858976" fill="#787878"></rect><rect x="223.4144" y="40.6208" width="14.623488" height="14.623488" rx="3.858976" fill="#D0D0D0"></rect><rect x="243.72480000000002" y="40.6208" width="14.623488" height="14.623488" rx="3.858976" fill="#9D9D9D"></rect><rect x="264.03520000000003" y="40.6208" width="14.623488" height="14.623488" rx="3.858976" fill="#787878"></rect><rect x="284.3456" y="40.6208" width="14.623488" height="14.623488" rx="3.858976" fill="#787878"></rect><rect x="304.656" y="40.6208" width="14.623488" height="14.623488" rx="3.858976" fill="#787878"></rect><rect x="324.9664" y="40.6208" width="14.623488" height="14.623488" rx="3.858976" fill="#EBEBEB"></rect><rect x="345.27680000000004" y="40.6208" width="14.623488" height="14.623488" rx="3.858976" fill="#9D9D9D"></rect><rect x="365.58720000000005" y="40.6208" width="14.623488" height="14.623488" rx="3.858976" fill="#D0D0D0"></rect><rect x="385.8976" y="40.6208" width="14.623488" height="14.623488" rx="3.858976" fill="#9D9D9D"></rect><rect x="406.208" y="40.6208" width="14.623488" height="14.623488" rx="3.858976" fill="#D0D0D0"></rect><rect x="426.51840000000004" y="40.6208" width="14.623488" height="14.623488" rx="3.858976" fill="#9D9D9D"></rect><rect x="446.8288" y="40.6208" width="14.623488" height="14.623488" rx="3.858976" fill="#787878"></rect><rect x="467.1392" y="40.6208" width="14.623488" height="14.623488" rx="3.858976" fill="#D0D0D0"></rect><rect x="487.44960000000003" y="40.6208" width="14.623488" height="14.623488" rx="3.858976" fill="#9D9D9D"></rect><rect x="0" y="60.931200000000004" width="14.623488" height="14.623488" rx="3.858976" fill="#EBEBEB"></rect><rect x="20.3104" y="60.931200000000004" width="14.623488" height="14.623488" rx="3.858976" fill="#787878"></rect><rect x="40.6208" y="60.931200000000004" width="14.623488" height="14.623488" rx="3.858976" fill="#D0D0D0"></rect><rect x="60.931200000000004" y="60.931200000000004" width="14.623488" height="14.623488" rx="3.858976" fill="#EBEBEB"></rect><rect x="81.2416" y="60.931200000000004" width="14.623488" height="14.623488" rx="3.858976" fill="#EBEBEB"></rect><rect x="101.552" y="60.931200000000004" width="14.623488" height="14.623488" rx="3.858976" fill="#D0D0D0"></rect><rect x="121.86240000000001" y="60.931200000000004" width="14.623488" height="14.623488" rx="3.858976" fill="#9D9D9D"></rect><rect x="142.1728" y="60.931200000000004" width="14.623488" height="14.623488" rx="3.858976" fill="#D0D0D0"></rect><rect x="162.4832" y="60.931200000000004" width="14.623488" height="14.623488" rx="3.858976" fill="#EBEBEB"></rect><rect x="182.79360000000003" y="60.931200000000004" width="14.623488" height="14.623488" rx="3.858976" fill="#787878"></rect><rect x="203.104" y="60.931200000000004" width="14.623488" height="14.623488" rx="3.858976" fill="#9D9D9D"></rect><rect x="223.4144" y="60.931200000000004" width="14.623488" height="14.623488" rx="3.858976" fill="#EBEBEB"></rect><rect x="243.72480000000002" y="60.931200000000004" width="14.623488" height="14.623488" rx="3.858976" fill="#787878"></rect><rect x="264.03520000000003" y="60.931200000000004" width="14.623488" height="14.623488" rx="3.858976" fill="#9D9D9D"></rect><rect x="284.3456" y="60.931200000000004" width="14.623488" height="14.623488" rx="3.858976" fill="#9D9D9D"></rect><rect x="304.656" y="60.931200000000004" width="14.623488" height="14.623488" rx="3.858976" fill="#EBEBEB"></rect><rect x="324.9664" y="60.931200000000004" width="14.623488" height="14.623488" rx="3.858976" fill="#EBEBEB"></rect><rect x="345.27680000000004" y="60.931200000000004" width="14.623488" height="14.623488" rx="3.858976" fill="#787878"></rect><rect x="365.58720000000005" y="60.931200000000004" width="14.623488" height="14.623488" rx="3.858976" fill="#787878"></rect><rect x="385.8976" y="60.931200000000004" width="14.623488" height="14.623488" rx="3.858976" fill="#EBEBEB"></rect><rect x="406.208" y="60.931200000000004" width="14.623488" height="14.623488" rx="3.858976" fill="#D0D0D0"></rect><rect x="426.51840000000004" y="60.931200000000004" width="14.623488" height="14.623488" rx="3.858976" fill="#9D9D9D"></rect><rect x="446.8288" y="60.931200000000004" width="14.623488" height="14.623488" rx="3.858976" fill="#9D9D9D"></rect><rect x="467.1392" y="60.931200000000004" width="14.623488" height="14.623488" rx="3.858976" fill="#9D9D9D"></rect><rect x="487.44960000000003" y="60.931200000000004" width="14.623488" height="14.623488" rx="3.858976" fill="#EBEBEB"></rect><rect x="0" y="81.2416" width="14.623488" height="14.623488" rx="3.858976" fill="#9D9D9D"></rect><rect x="20.3104" y="81.2416" width="14.623488" height="14.623488" rx="3.858976" fill="#9D9D9D"></rect><rect x="40.6208" y="81.2416" width="14.623488" height="14.623488" rx="3.858976" fill="#D0D0D0"></rect><rect x="60.931200000000004" y="81.2416" width="14.623488" height="14.623488" rx="3.858976" fill="#D0D0D0"></rect><rect x="81.2416" y="81.2416" width="14.623488" height="14.623488" rx="3.858976" fill="#787878"></rect><rect x="101.552" y="81.2416" width="14.623488" height="14.623488" rx="3.858976" fill="#D0D0D0"></rect><rect x="121.86240000000001" y="81.2416" width="14.623488" height="14.623488" rx="3.858976" fill="#EBEBEB"></rect><rect x="142.1728" y="81.2416" width="14.623488" height="14.623488" rx="3.858976" fill="#787878"></rect><rect x="162.4832" y="81.2416" width="14.623488" height="14.623488" rx="3.858976" fill="#9D9D9D"></rect><rect x="182.79360000000003" y="81.2416" width="14.623488" height="14.623488" rx="3.858976" fill="#9D9D9D"></rect><rect x="203.104" y="81.2416" width="14.623488" height="14.623488" rx="3.858976" fill="#787878"></rect><rect x="223.4144" y="81.2416" width="14.623488" height="14.623488" rx="3.858976" fill="#D0D0D0"></rect><rect x="243.72480000000002" y="81.2416" width="14.623488" height="14.623488" rx="3.858976" fill="#787878"></rect><rect x="264.03520000000003" y="81.2416" width="14.623488" height="14.623488" rx="3.858976" fill="#787878"></rect><rect x="284.3456" y="81.2416" width="14.623488" height="14.623488" rx="3.858976" fill="#D0D0D0"></rect><rect x="304.656" y="81.2416" width="14.623488" height="14.623488" rx="3.858976" fill="#787878"></rect><rect x="324.9664" y="81.2416" width="14.623488" height="14.623488" rx="3.858976" fill="#D0D0D0"></rect><rect x="345.27680000000004" y="81.2416" width="14.623488" height="14.623488" rx="3.858976" fill="#D0D0D0"></rect><rect x="365.58720000000005" y="81.2416" width="14.623488" height="14.623488" rx="3.858976" fill="#EBEBEB"></rect><rect x="385.8976" y="81.2416" width="14.623488" height="14.623488" rx="3.858976" fill="#EBEBEB"></rect><rect x="406.208" y="81.2416" width="14.623488" height="14.623488" rx="3.858976" fill="#787878"></rect><rect x="426.51840000000004" y="81.2416" width="14.623488" height="14.623488" rx="3.858976" fill="#EBEBEB"></rect><rect x="446.8288" y="81.2416" width="14.623488" height="14.623488" rx="3.858976" fill="#D0D0D0"></rect><rect x="467.1392" y="81.2416" width="14.623488" height="14.623488" rx="3.858976" fill="#787878"></rect><rect x="487.44960000000003" y="81.2416" width="14.623488" height="14.623488" rx="3.858976" fill="#EBEBEB"></rect><rect x="0" y="101.552" width="14.623488" height="14.623488" rx="3.858976" fill="#D0D0D0"></rect><rect x="20.3104" y="101.552" width="14.623488" height="14.623488" rx="3.858976" fill="#D0D0D0"></rect><rect x="40.6208" y="101.552" width="14.623488" height="14.623488" rx="3.858976" fill="#D0D0D0"></rect><rect x="60.931200000000004" y="101.552" width="14.623488" height="14.623488" rx="3.858976" fill="#EBEBEB"></rect><rect x="81.2416" y="101.552" width="14.623488" height="14.623488" rx="3.858976" fill="#787878"></rect><rect x="101.552" y="101.552" width="14.623488" height="14.623488" rx="3.858976" fill="#D0D0D0"></rect><rect x="121.86240000000001" y="101.552" width="14.623488" height="14.623488" rx="3.858976" fill="#EBEBEB"></rect><rect x="142.1728" y="101.552" width="14.623488" height="14.623488" rx="3.858976" fill="#D0D0D0"></rect><rect x="162.4832" y="101.552" width="14.623488" height="14.623488" rx="3.858976" fill="#9D9D9D"></rect><rect x="182.79360000000003" y="101.552" width="14.623488" height="14.623488" rx="3.858976" fill="#9D9D9D"></rect><rect x="203.104" y="101.552" width="14.623488" height="14.623488" rx="3.858976" fill="#D0D0D0"></rect><rect x="223.4144" y="101.552" width="14.623488" height="14.623488" rx="3.858976" fill="#9D9D9D"></rect><rect x="243.72480000000002" y="101.552" width="14.623488" height="14.623488" rx="3.858976" fill="#EBEBEB"></rect><rect x="264.03520000000003" y="101.552" width="14.623488" height="14.623488" rx="3.858976" fill="#787878"></rect><rect x="284.3456" y="101.552" width="14.623488" height="14.623488" rx="3.858976" fill="#D0D0D0"></rect><rect x="304.656" y="101.552" width="14.623488" height="14.623488" rx="3.858976" fill="#EBEBEB"></rect><rect x="324.9664" y="101.552" width="14.623488" height="14.623488" rx="3.858976" fill="#EBEBEB"></rect><rect x="345.27680000000004" y="101.552" width="14.623488" height="14.623488" rx="3.858976" fill="#EBEBEB"></rect><rect x="365.58720000000005" y="101.552" width="14.623488" height="14.623488" rx="3.858976" fill="#9D9D9D"></rect><rect x="385.8976" y="101.552" width="14.623488" height="14.623488" rx="3.858976" fill="#D0D0D0"></rect><rect x="406.208" y="101.552" width="14.623488" height="14.623488" rx="3.858976" fill="#9D9D9D"></rect><rect x="426.51840000000004" y="101.552" width="14.623488" height="14.623488" rx="3.858976" fill="#9D9D9D"></rect><rect x="446.8288" y="101.552" width="14.623488" height="14.623488" rx="3.858976" fill="#9D9D9D"></rect><rect x="467.1392" y="101.552" width="14.623488" height="14.623488" rx="3.858976" fill="#787878"></rect><rect x="487.44960000000003" y="101.552" width="14.623488" height="14.623488" rx="3.858976" fill="#9D9D9D"></rect><rect x="0" y="121.86240000000001" width="14.623488" height="14.623488" rx="3.858976" fill="#D0D0D0"></rect><rect x="20.3104" y="121.86240000000001" width="14.623488" height="14.623488" rx="3.858976" fill="#9D9D9D"></rect><rect x="40.6208" y="121.86240000000001" width="14.623488" height="14.623488" rx="3.858976" fill="#D0D0D0"></rect><rect x="60.931200000000004" y="121.86240000000001" width="14.623488" height="14.623488" rx="3.858976" fill="#9D9D9D"></rect><rect x="81.2416" y="121.86240000000001" width="14.623488" height="14.623488" rx="3.858976" fill="#EBEBEB"></rect><rect x="101.552" y="121.86240000000001" width="14.623488" height="14.623488" rx="3.858976" fill="#787878"></rect><rect x="121.86240000000001" y="121.86240000000001" width="14.623488" height="14.623488" rx="3.858976" fill="#9D9D9D"></rect><rect x="142.1728" y="121.86240000000001" width="14.623488" height="14.623488" rx="3.858976" fill="#9D9D9D"></rect><rect x="162.4832" y="121.86240000000001" width="14.623488" height="14.623488" rx="3.858976" fill="#EBEBEB"></rect><rect x="182.79360000000003" y="121.86240000000001" width="14.623488" height="14.623488" rx="3.858976" fill="#EBEBEB"></rect><rect x="203.104" y="121.86240000000001" width="14.623488" height="14.623488" rx="3.858976" fill="#787878"></rect><rect x="223.4144" y="121.86240000000001" width="14.623488" height="14.623488" rx="3.858976" fill="#D0D0D0"></rect><rect x="243.72480000000002" y="121.86240000000001" width="14.623488" height="14.623488" rx="3.858976" fill="#787878"></rect><rect x="264.03520000000003" y="121.86240000000001" width="14.623488" height="14.623488" rx="3.858976" fill="#9D9D9D"></rect><rect x="284.3456" y="121.86240000000001" width="14.623488" height="14.623488" rx="3.858976" fill="#EBEBEB"></rect><rect x="304.656" y="121.86240000000001" width="14.623488" height="14.623488" rx="3.858976" fill="#9D9D9D"></rect><rect x="324.9664" y="121.86240000000001" width="14.623488" height="14.623488" rx="3.858976" fill="#9D9D9D"></rect><rect x="345.27680000000004" y="121.86240000000001" width="14.623488" height="14.623488" rx="3.858976" fill="#EBEBEB"></rect><rect x="365.58720000000005" y="121.86240000000001" width="14.623488" height="14.623488" rx="3.858976" fill="#787878"></rect><rect x="385.8976" y="121.86240000000001" width="14.623488" height="14.623488" rx="3.858976" fill="#EBEBEB"></rect><rect x="406.208" y="121.86240000000001" width="14.623488" height="14.623488" rx="3.858976" fill="#9D9D9D"></rect><rect x="426.51840000000004" y="121.86240000000001" width="14.623488" height="14.623488" rx="3.858976" fill="#EBEBEB"></rect><rect x="446.8288" y="121.86240000000001" width="14.623488" height="14.623488" rx="3.858976" fill="#D0D0D0"></rect><rect x="467.1392" y="121.86240000000001" width="14.623488" height="14.623488" rx="3.858976" fill="#9D9D9D"></rect><rect x="487.44960000000003" y="121.86240000000001" width="14.623488" height="14.623488" rx="3.858976" fill="#EBEBEB"></rect><rect x="0" y="142.1728" width="14.623488" height="14.623488" rx="3.858976" fill="#D0D0D0"></rect><rect x="20.3104" y="142.1728" width="14.623488" height="14.623488" rx="3.858976" fill="#787878"></rect><rect x="40.6208" y="142.1728" width="14.623488" height="14.623488" rx="3.858976" fill="#D0D0D0"></rect><rect x="60.931200000000004" y="142.1728" width="14.623488" height="14.623488" rx="3.858976" fill="#787878"></rect><rect x="81.2416" y="142.1728" width="14.623488" height="14.623488" rx="3.858976" fill="#EBEBEB"></rect><rect x="101.552" y="142.1728" width="14.623488" height="14.623488" rx="3.858976" fill="#787878"></rect><rect x="121.86240000000001" y="142.1728" width="14.623488" height="14.623488" rx="3.858976" fill="#9D9D9D"></rect><rect x="142.1728" y="142.1728" width="14.623488" height="14.623488" rx="3.858976" fill="#EBEBEB"></rect><rect x="162.4832" y="142.1728" width="14.623488" height="14.623488" rx="3.858976" fill="#EBEBEB"></rect><rect x="182.79360000000003" y="142.1728" width="14.623488" height="14.623488" rx="3.858976" fill="#EBEBEB"></rect><rect x="203.104" y="142.1728" width="14.623488" height="14.623488" rx="3.858976" fill="#EBEBEB"></rect><rect x="223.4144" y="142.1728" width="14.623488" height="14.623488" rx="3.858976" fill="#EBEBEB"></rect><rect x="243.72480000000002" y="142.1728" width="14.623488" height="14.623488" rx="3.858976" fill="#787878"></rect><rect x="264.03520000000003" y="142.1728" width="14.623488" height="14.623488" rx="3.858976" fill="#D0D0D0"></rect><rect x="284.3456" y="142.1728" width="14.623488" height="14.623488" rx="3.858976" fill="#D0D0D0"></rect><rect x="304.656" y="142.1728" width="14.623488" height="14.623488" rx="3.858976" fill="#9D9D9D"></rect><rect x="324.9664" y="142.1728" width="14.623488" height="14.623488" rx="3.858976" fill="#EBEBEB"></rect><rect x="345.27680000000004" y="142.1728" width="14.623488" height="14.623488" rx="3.858976" fill="#787878"></rect><rect x="365.58720000000005" y="142.1728" width="14.623488" height="14.623488" rx="3.858976" fill="#9D9D9D"></rect><rect x="385.8976" y="142.1728" width="14.623488" height="14.623488" rx="3.858976" fill="#EBEBEB"></rect><rect x="406.208" y="142.1728" width="14.623488" height="14.623488" rx="3.858976" fill="#9D9D9D"></rect><rect x="426.51840000000004" y="142.1728" width="14.623488" height="14.623488" rx="3.858976" fill="#9D9D9D"></rect><rect x="446.8288" y="142.1728" width="14.623488" height="14.623488" rx="3.858976" fill="#787878"></rect><rect x="467.1392" y="142.1728" width="14.623488" height="14.623488" rx="3.858976" fill="#EBEBEB"></rect><rect x="487.44960000000003" y="142.1728" width="14.623488" height="14.623488" rx="3.858976" fill="#9D9D9D"></rect><rect x="0" y="162.4832" width="14.623488" height="14.623488" rx="3.858976" fill="#D0D0D0"></rect><rect x="20.3104" y="162.4832" width="14.623488" height="14.623488" rx="3.858976" fill="#D0D0D0"></rect><rect x="40.6208" y="162.4832" width="14.623488" height="14.623488" rx="3.858976" fill="#EBEBEB"></rect><rect x="60.931200000000004" y="162.4832" width="14.623488" height="14.623488" rx="3.858976" fill="#EBEBEB"></rect><rect x="81.2416" y="162.4832" width="14.623488" height="14.623488" rx="3.858976" fill="#EBEBEB"></rect><rect x="101.552" y="162.4832" width="14.623488" height="14.623488" rx="3.858976" fill="#9D9D9D"></rect><rect x="121.86240000000001" y="162.4832" width="14.623488" height="14.623488" rx="3.858976" fill="#D0D0D0"></rect><rect x="142.1728" y="162.4832" width="14.623488" height="14.623488" rx="3.858976" fill="#9D9D9D"></rect><rect x="162.4832" y="162.4832" width="14.623488" height="14.623488" rx="3.858976" fill="#9D9D9D"></rect><rect x="182.79360000000003" y="162.4832" width="14.623488" height="14.623488" rx="3.858976" fill="#EBEBEB"></rect><rect x="203.104" y="162.4832" width="14.623488" height="14.623488" rx="3.858976" fill="#EBEBEB"></rect><rect x="223.4144" y="162.4832" width="14.623488" height="14.623488" rx="3.858976" fill="#D0D0D0"></rect><rect x="243.72480000000002" y="162.4832" width="14.623488" height="14.623488" rx="3.858976" fill="#D0D0D0"></rect><rect x="264.03520000000003" y="162.4832" width="14.623488" height="14.623488" rx="3.858976" fill="#787878"></rect><rect x="284.3456" y="162.4832" width="14.623488" height="14.623488" rx="3.858976" fill="#EBEBEB"></rect><rect x="304.656" y="162.4832" width="14.623488" height="14.623488" rx="3.858976" fill="#787878"></rect><rect x="324.9664" y="162.4832" width="14.623488" height="14.623488" rx="3.858976" fill="#9D9D9D"></rect><rect x="345.27680000000004" y="162.4832" width="14.623488" height="14.623488" rx="3.858976" fill="#D0D0D0"></rect><rect x="365.58720000000005" y="162.4832" width="14.623488" height="14.623488" rx="3.858976" fill="#D0D0D0"></rect><rect x="385.8976" y="162.4832" width="14.623488" height="14.623488" rx="3.858976" fill="#9D9D9D"></rect><rect x="406.208" y="162.4832" width="14.623488" height="14.623488" rx="3.858976" fill="#9D9D9D"></rect><rect x="426.51840000000004" y="162.4832" width="14.623488" height="14.623488" rx="3.858976" fill="#9D9D9D"></rect><rect x="446.8288" y="162.4832" width="14.623488" height="14.623488" rx="3.858976" fill="#EBEBEB"></rect><rect x="467.1392" y="162.4832" width="14.623488" height="14.623488" rx="3.858976" fill="#9D9D9D"></rect><rect x="487.44960000000003" y="162.4832" width="14.623488" height="14.623488" rx="3.858976" fill="#787878"></rect><rect x="0" y="182.79360000000003" width="14.623488" height="14.623488" rx="3.858976" fill="#787878"></rect><rect x="20.3104" y="182.79360000000003" width="14.623488" height="14.623488" rx="3.858976" fill="#D0D0D0"></rect><rect x="40.6208" y="182.79360000000003" width="14.623488" height="14.623488" rx="3.858976" fill="#EBEBEB"></rect><rect x="60.931200000000004" y="182.79360000000003" width="14.623488" height="14.623488" rx="3.858976" fill="#787878"></rect><rect x="81.2416" y="182.79360000000003" width="14.623488" height="14.623488" rx="3.858976" fill="#787878"></rect><rect x="101.552" y="182.79360000000003" width="14.623488" height="14.623488" rx="3.858976" fill="#EBEBEB"></rect><rect x="121.86240000000001" y="182.79360000000003" width="14.623488" height="14.623488" rx="3.858976" fill="#D0D0D0"></rect><rect x="142.1728" y="182.79360000000003" width="14.623488" height="14.623488" rx="3.858976" fill="#9D9D9D"></rect><rect x="162.4832" y="182.79360000000003" width="14.623488" height="14.623488" rx="3.858976" fill="#D0D0D0"></rect><rect x="182.79360000000003" y="182.79360000000003" width="14.623488" height="14.623488" rx="3.858976" fill="#787878"></rect><rect x="203.104" y="182.79360000000003" width="14.623488" height="14.623488" rx="3.858976" fill="#D0D0D0"></rect><rect x="223.4144" y="182.79360000000003" width="14.623488" height="14.623488" rx="3.858976" fill="#D0D0D0"></rect><rect x="243.72480000000002" y="182.79360000000003" width="14.623488" height="14.623488" rx="3.858976" fill="#9D9D9D"></rect><rect x="264.03520000000003" y="182.79360000000003" width="14.623488" height="14.623488" rx="3.858976" fill="#D0D0D0"></rect><rect x="284.3456" y="182.79360000000003" width="14.623488" height="14.623488" rx="3.858976" fill="#D0D0D0"></rect><rect x="304.656" y="182.79360000000003" width="14.623488" height="14.623488" rx="3.858976" fill="#787878"></rect><rect x="324.9664" y="182.79360000000003" width="14.623488" height="14.623488" rx="3.858976" fill="#EBEBEB"></rect><rect x="345.27680000000004" y="182.79360000000003" width="14.623488" height="14.623488" rx="3.858976" fill="#D0D0D0"></rect><rect x="365.58720000000005" y="182.79360000000003" width="14.623488" height="14.623488" rx="3.858976" fill="#D0D0D0"></rect><rect x="385.8976" y="182.79360000000003" width="14.623488" height="14.623488" rx="3.858976" fill="#EBEBEB"></rect><rect x="406.208" y="182.79360000000003" width="14.623488" height="14.623488" rx="3.858976" fill="#D0D0D0"></rect><rect x="426.51840000000004" y="182.79360000000003" width="14.623488" height="14.623488" rx="3.858976" fill="#9D9D9D"></rect><rect x="446.8288" y="182.79360000000003" width="14.623488" height="14.623488" rx="3.858976" fill="#787878"></rect><rect x="467.1392" y="182.79360000000003" width="14.623488" height="14.623488" rx="3.858976" fill="#D0D0D0"></rect><rect x="487.44960000000003" y="182.79360000000003" width="14.623488" height="14.623488" rx="3.858976" fill="#D0D0D0"></rect><rect x="0" y="203.104" width="14.623488" height="14.623488" rx="3.858976" fill="#EBEBEB"></rect><rect x="20.3104" y="203.104" width="14.623488" height="14.623488" rx="3.858976" fill="#EBEBEB"></rect><rect x="40.6208" y="203.104" width="14.623488" height="14.623488" rx="3.858976" fill="#9D9D9D"></rect><rect x="60.931200000000004" y="203.104" width="14.623488" height="14.623488" rx="3.858976" fill="#9D9D9D"></rect><rect x="81.2416" y="203.104" width="14.623488" height="14.623488" rx="3.858976" fill="#9D9D9D"></rect><rect x="101.552" y="203.104" width="14.623488" height="14.623488" rx="3.858976" fill="#D0D0D0"></rect><rect x="121.86240000000001" y="203.104" width="14.623488" height="14.623488" rx="3.858976" fill="#EBEBEB"></rect><rect x="142.1728" y="203.104" width="14.623488" height="14.623488" rx="3.858976" fill="#787878"></rect><rect x="162.4832" y="203.104" width="14.623488" height="14.623488" rx="3.858976" fill="#D0D0D0"></rect><rect x="182.79360000000003" y="203.104" width="14.623488" height="14.623488" rx="3.858976" fill="#9D9D9D"></rect><rect x="203.104" y="203.104" width="14.623488" height="14.623488" rx="3.858976" fill="#D0D0D0"></rect><rect x="223.4144" y="203.104" width="14.623488" height="14.623488" rx="3.858976" fill="#9D9D9D"></rect><rect x="243.72480000000002" y="203.104" width="14.623488" height="14.623488" rx="3.858976" fill="#9D9D9D"></rect><rect x="264.03520000000003" y="203.104" width="14.623488" height="14.623488" rx="3.858976" fill="#EBEBEB"></rect><rect x="284.3456" y="203.104" width="14.623488" height="14.623488" rx="3.858976" fill="#9D9D9D"></rect><rect x="304.656" y="203.104" width="14.623488" height="14.623488" rx="3.858976" fill="#787878"></rect><rect x="324.9664" y="203.104" width="14.623488" height="14.623488" rx="3.858976" fill="#D0D0D0"></rect><rect x="345.27680000000004" y="203.104" width="14.623488" height="14.623488" rx="3.858976" fill="#EBEBEB"></rect><rect x="365.58720000000005" y="203.104" width="14.623488" height="14.623488" rx="3.858976" fill="#787878"></rect><rect x="385.8976" y="203.104" width="14.623488" height="14.623488" rx="3.858976" fill="#D0D0D0"></rect><rect x="406.208" y="203.104" width="14.623488" height="14.623488" rx="3.858976" fill="#9D9D9D"></rect><rect x="426.51840000000004" y="203.104" width="14.623488" height="14.623488" rx="3.858976" fill="#9D9D9D"></rect><rect x="446.8288" y="203.104" width="14.623488" height="14.623488" rx="3.858976" fill="#EBEBEB"></rect><rect x="467.1392" y="203.104" width="14.623488" height="14.623488" rx="3.858976" fill="#787878"></rect><rect x="487.44960000000003" y="203.104" width="14.623488" height="14.623488" rx="3.858976" fill="#EBEBEB"></rect><rect x="0" y="223.4144" width="14.623488" height="14.623488" rx="3.858976" fill="#9D9D9D"></rect><rect x="20.3104" y="223.4144" width="14.623488" height="14.623488" rx="3.858976" fill="#9D9D9D"></rect><rect x="40.6208" y="223.4144" width="14.623488" height="14.623488" rx="3.858976" fill="#EBEBEB"></rect><rect x="60.931200000000004" y="223.4144" width="14.623488" height="14.623488" rx="3.858976" fill="#D0D0D0"></rect><rect x="81.2416" y="223.4144" width="14.623488" height="14.623488" rx="3.858976" fill="#EBEBEB"></rect><rect x="101.552" y="223.4144" width="14.623488" height="14.623488" rx="3.858976" fill="#D0D0D0"></rect><rect x="121.86240000000001" y="223.4144" width="14.623488" height="14.623488" rx="3.858976" fill="#9D9D9D"></rect><rect x="142.1728" y="223.4144" width="14.623488" height="14.623488" rx="3.858976" fill="#9D9D9D"></rect><rect x="162.4832" y="223.4144" width="14.623488" height="14.623488" rx="3.858976" fill="#EBEBEB"></rect><rect x="182.79360000000003" y="223.4144" width="14.623488" height="14.623488" rx="3.858976" fill="#9D9D9D"></rect><rect x="203.104" y="223.4144" width="14.623488" height="14.623488" rx="3.858976" fill="#9D9D9D"></rect><rect x="223.4144" y="223.4144" width="14.623488" height="14.623488" rx="3.858976" fill="#D0D0D0"></rect><rect x="243.72480000000002" y="223.4144" width="14.623488" height="14.623488" rx="3.858976" fill="#D0D0D0"></rect><rect x="264.03520000000003" y="223.4144" width="14.623488" height="14.623488" rx="3.858976" fill="#EBEBEB"></rect><rect x="284.3456" y="223.4144" width="14.623488" height="14.623488" rx="3.858976" fill="#D0D0D0"></rect><rect x="304.656" y="223.4144" width="14.623488" height="14.623488" rx="3.858976" fill="#9D9D9D"></rect><rect x="324.9664" y="223.4144" width="14.623488" height="14.623488" rx="3.858976" fill="#787878"></rect><rect x="345.27680000000004" y="223.4144" width="14.623488" height="14.623488" rx="3.858976" fill="#787878"></rect><rect x="365.58720000000005" y="223.4144" width="14.623488" height="14.623488" rx="3.858976" fill="#787878"></rect><rect x="385.8976" y="223.4144" width="14.623488" height="14.623488" rx="3.858976" fill="#787878"></rect><rect x="406.208" y="223.4144" width="14.623488" height="14.623488" rx="3.858976" fill="#EBEBEB"></rect><rect x="426.51840000000004" y="223.4144" width="14.623488" height="14.623488" rx="3.858976" fill="#D0D0D0"></rect><rect x="446.8288" y="223.4144" width="14.623488" height="14.623488" rx="3.858976" fill="#EBEBEB"></rect><rect x="467.1392" y="223.4144" width="14.623488" height="14.623488" rx="3.858976" fill="#EBEBEB"></rect><rect x="487.44960000000003" y="223.4144" width="14.623488" height="14.623488" rx="3.858976" fill="#EBEBEB"></rect><rect x="0" y="243.72480000000002" width="14.623488" height="14.623488" rx="3.858976" fill="#EBEBEB"></rect><rect x="20.3104" y="243.72480000000002" width="14.623488" height="14.623488" rx="3.858976" fill="#787878"></rect><rect x="40.6208" y="243.72480000000002" width="14.623488" height="14.623488" rx="3.858976" fill="#D0D0D0"></rect><rect x="60.931200000000004" y="243.72480000000002" width="14.623488" height="14.623488" rx="3.858976" fill="#EBEBEB"></rect><rect x="81.2416" y="243.72480000000002" width="14.623488" height="14.623488" rx="3.858976" fill="#9D9D9D"></rect><rect x="101.552" y="243.72480000000002" width="14.623488" height="14.623488" rx="3.858976" fill="#EBEBEB"></rect><rect x="121.86240000000001" y="243.72480000000002" width="14.623488" height="14.623488" rx="3.858976" fill="#EBEBEB"></rect><rect x="142.1728" y="243.72480000000002" width="14.623488" height="14.623488" rx="3.858976" fill="#D0D0D0"></rect><rect x="162.4832" y="243.72480000000002" width="14.623488" height="14.623488" rx="3.858976" fill="#787878"></rect><rect x="182.79360000000003" y="243.72480000000002" width="14.623488" height="14.623488" rx="3.858976" fill="#D0D0D0"></rect><rect x="203.104" y="243.72480000000002" width="14.623488" height="14.623488" rx="3.858976" fill="#D0D0D0"></rect><rect x="223.4144" y="243.72480000000002" width="14.623488" height="14.623488" rx="3.858976" fill="#9D9D9D"></rect><rect x="243.72480000000002" y="243.72480000000002" width="14.623488" height="14.623488" rx="3.858976" fill="#9D9D9D"></rect><rect x="264.03520000000003" y="243.72480000000002" width="14.623488" height="14.623488" rx="3.858976" fill="#D0D0D0"></rect><rect x="284.3456" y="243.72480000000002" width="14.623488" height="14.623488" rx="3.858976" fill="#787878"></rect><rect x="304.656" y="243.72480000000002" width="14.623488" height="14.623488" rx="3.858976" fill="#D0D0D0"></rect><rect x="324.9664" y="243.72480000000002" width="14.623488" height="14.623488" rx="3.858976" fill="#EBEBEB"></rect><rect x="345.27680000000004" y="243.72480000000002" width="14.623488" height="14.623488" rx="3.858976" fill="#D0D0D0"></rect><rect x="365.58720000000005" y="243.72480000000002" width="14.623488" height="14.623488" rx="3.858976" fill="#EBEBEB"></rect><rect x="385.8976" y="243.72480000000002" width="14.623488" height="14.623488" rx="3.858976" fill="#9D9D9D"></rect><rect x="406.208" y="243.72480000000002" width="14.623488" height="14.623488" rx="3.858976" fill="#D0D0D0"></rect><rect x="426.51840000000004" y="243.72480000000002" width="14.623488" height="14.623488" rx="3.858976" fill="#9D9D9D"></rect><rect x="446.8288" y="243.72480000000002" width="14.623488" height="14.623488" rx="3.858976" fill="#787878"></rect><rect x="467.1392" y="243.72480000000002" width="14.623488" height="14.623488" rx="3.858976" fill="#787878"></rect><rect x="487.44960000000003" y="243.72480000000002" width="14.623488" height="14.623488" rx="3.858976" fill="#D0D0D0"></rect><rect x="0" y="264.03520000000003" width="14.623488" height="14.623488" rx="3.858976" fill="#787878"></rect><rect x="20.3104" y="264.03520000000003" width="14.623488" height="14.623488" rx="3.858976" fill="#D0D0D0"></rect><rect x="40.6208" y="264.03520000000003" width="14.623488" height="14.623488" rx="3.858976" fill="#787878"></rect><rect x="60.931200000000004" y="264.03520000000003" width="14.623488" height="14.623488" rx="3.858976" fill="#787878"></rect><rect x="81.2416" y="264.03520000000003" width="14.623488" height="14.623488" rx="3.858976" fill="#EBEBEB"></rect><rect x="101.552" y="264.03520000000003" width="14.623488" height="14.623488" rx="3.858976" fill="#787878"></rect><rect x="121.86240000000001" y="264.03520000000003" width="14.623488" height="14.623488" rx="3.858976" fill="#EBEBEB"></rect><rect x="142.1728" y="264.03520000000003" width="14.623488" height="14.623488" rx="3.858976" fill="#D0D0D0"></rect><rect x="162.4832" y="264.03520000000003" width="14.623488" height="14.623488" rx="3.858976" fill="#D0D0D0"></rect><rect x="182.79360000000003" y="264.03520000000003" width="14.623488" height="14.623488" rx="3.858976" fill="#D0D0D0"></rect><rect x="203.104" y="264.03520000000003" width="14.623488" height="14.623488" rx="3.858976" fill="#787878"></rect><rect x="223.4144" y="264.03520000000003" width="14.623488" height="14.623488" rx="3.858976" fill="#9D9D9D"></rect><rect x="243.72480000000002" y="264.03520000000003" width="14.623488" height="14.623488" rx="3.858976" fill="#9D9D9D"></rect><rect x="264.03520000000003" y="264.03520000000003" width="14.623488" height="14.623488" rx="3.858976" fill="#787878"></rect><rect x="284.3456" y="264.03520000000003" width="14.623488" height="14.623488" rx="3.858976" fill="#EBEBEB"></rect><rect x="304.656" y="264.03520000000003" width="14.623488" height="14.623488" rx="3.858976" fill="#9D9D9D"></rect><rect x="324.9664" y="264.03520000000003" width="14.623488" height="14.623488" rx="3.858976" fill="#787878"></rect><rect x="345.27680000000004" y="264.03520000000003" width="14.623488" height="14.623488" rx="3.858976" fill="#D0D0D0"></rect><rect x="365.58720000000005" y="264.03520000000003" width="14.623488" height="14.623488" rx="3.858976" fill="#D0D0D0"></rect><rect x="385.8976" y="264.03520000000003" width="14.623488" height="14.623488" rx="3.858976" fill="#9D9D9D"></rect><rect x="406.208" y="264.03520000000003" width="14.623488" height="14.623488" rx="3.858976" fill="#9D9D9D"></rect><rect x="426.51840000000004" y="264.03520000000003" width="14.623488" height="14.623488" rx="3.858976" fill="#787878"></rect><rect x="446.8288" y="264.03520000000003" width="14.623488" height="14.623488" rx="3.858976" fill="#EBEBEB"></rect><rect x="467.1392" y="264.03520000000003" width="14.623488" height="14.623488" rx="3.858976" fill="#D0D0D0"></rect><rect x="487.44960000000003" y="264.03520000000003" width="14.623488" height="14.623488" rx="3.858976" fill="#787878"></rect><rect x="0" y="284.3456" width="14.623488" height="14.623488" rx="3.858976" fill="#9D9D9D"></rect><rect x="20.3104" y="284.3456" width="14.623488" height="14.623488" rx="3.858976" fill="#9D9D9D"></rect><rect x="40.6208" y="284.3456" width="14.623488" height="14.623488" rx="3.858976" fill="#EBEBEB"></rect><rect x="60.931200000000004" y="284.3456" width="14.623488" height="14.623488" rx="3.858976" fill="#D0D0D0"></rect><rect x="81.2416" y="284.3456" width="14.623488" height="14.623488" rx="3.858976" fill="#D0D0D0"></rect><rect x="101.552" y="284.3456" width="14.623488" height="14.623488" rx="3.858976" fill="#D0D0D0"></rect><rect x="121.86240000000001" y="284.3456" width="14.623488" height="14.623488" rx="3.858976" fill="#D0D0D0"></rect><rect x="142.1728" y="284.3456" width="14.623488" height="14.623488" rx="3.858976" fill="#9D9D9D"></rect><rect x="162.4832" y="284.3456" width="14.623488" height="14.623488" rx="3.858976" fill="#D0D0D0"></rect><rect x="182.79360000000003" y="284.3456" width="14.623488" height="14.623488" rx="3.858976" fill="#EBEBEB"></rect><rect x="203.104" y="284.3456" width="14.623488" height="14.623488" rx="3.858976" fill="#D0D0D0"></rect><rect x="223.4144" y="284.3456" width="14.623488" height="14.623488" rx="3.858976" fill="#787878"></rect><rect x="243.72480000000002" y="284.3456" width="14.623488" height="14.623488" rx="3.858976" fill="#787878"></rect><rect x="264.03520000000003" y="284.3456" width="14.623488" height="14.623488" rx="3.858976" fill="#D0D0D0"></rect><rect x="284.3456" y="284.3456" width="14.623488" height="14.623488" rx="3.858976" fill="#EBEBEB"></rect><rect x="304.656" y="284.3456" width="14.623488" height="14.623488" rx="3.858976" fill="#D0D0D0"></rect><rect x="324.9664" y="284.3456" width="14.623488" height="14.623488" rx="3.858976" fill="#EBEBEB"></rect><rect x="345.27680000000004" y="284.3456" width="14.623488" height="14.623488" rx="3.858976" fill="#D0D0D0"></rect><rect x="365.58720000000005" y="284.3456" width="14.623488" height="14.623488" rx="3.858976" fill="#787878"></rect><rect x="385.8976" y="284.3456" width="14.623488" height="14.623488" rx="3.858976" fill="#787878"></rect><rect x="406.208" y="284.3456" width="14.623488" height="14.623488" rx="3.858976" fill="#787878"></rect><rect x="426.51840000000004" y="284.3456" width="14.623488" height="14.623488" rx="3.858976" fill="#9D9D9D"></rect><rect x="446.8288" y="284.3456" width="14.623488" height="14.623488" rx="3.858976" fill="#EBEBEB"></rect><rect x="467.1392" y="284.3456" width="14.623488" height="14.623488" rx="3.858976" fill="#787878"></rect><rect x="487.44960000000003" y="284.3456" width="14.623488" height="14.623488" rx="3.858976" fill="#D0D0D0"></rect><rect x="0" y="304.656" width="14.623488" height="14.623488" rx="3.858976" fill="#EBEBEB"></rect><rect x="20.3104" y="304.656" width="14.623488" height="14.623488" rx="3.858976" fill="#9D9D9D"></rect><rect x="40.6208" y="304.656" width="14.623488" height="14.623488" rx="3.858976" fill="#787878"></rect><rect x="60.931200000000004" y="304.656" width="14.623488" height="14.623488" rx="3.858976" fill="#D0D0D0"></rect><rect x="81.2416" y="304.656" width="14.623488" height="14.623488" rx="3.858976" fill="#D0D0D0"></rect><rect x="101.552" y="304.656" width="14.623488" height="14.623488" rx="3.858976" fill="#787878"></rect><rect x="121.86240000000001" y="304.656" width="14.623488" height="14.623488" rx="3.858976" fill="#D0D0D0"></rect><rect x="142.1728" y="304.656" width="14.623488" height="14.623488" rx="3.858976" fill="#787878"></rect><rect x="162.4832" y="304.656" width="14.623488" height="14.623488" rx="3.858976" fill="#D0D0D0"></rect><rect x="182.79360000000003" y="304.656" width="14.623488" height="14.623488" rx="3.858976" fill="#9D9D9D"></rect><rect x="203.104" y="304.656" width="14.623488" height="14.623488" rx="3.858976" fill="#D0D0D0"></rect><rect x="223.4144" y="304.656" width="14.623488" height="14.623488" rx="3.858976" fill="#D0D0D0"></rect><rect x="243.72480000000002" y="304.656" width="14.623488" height="14.623488" rx="3.858976" fill="#D0D0D0"></rect><rect x="264.03520000000003" y="304.656" width="14.623488" height="14.623488" rx="3.858976" fill="#787878"></rect><rect x="284.3456" y="304.656" width="14.623488" height="14.623488" rx="3.858976" fill="#9D9D9D"></rect><rect x="304.656" y="304.656" width="14.623488" height="14.623488" rx="3.858976" fill="#9D9D9D"></rect><rect x="324.9664" y="304.656" width="14.623488" height="14.623488" rx="3.858976" fill="#787878"></rect><rect x="345.27680000000004" y="304.656" width="14.623488" height="14.623488" rx="3.858976" fill="#9D9D9D"></rect><rect x="365.58720000000005" y="304.656" width="14.623488" height="14.623488" rx="3.858976" fill="#9D9D9D"></rect><rect x="385.8976" y="304.656" width="14.623488" height="14.623488" rx="3.858976" fill="#787878"></rect><rect x="406.208" y="304.656" width="14.623488" height="14.623488" rx="3.858976" fill="#EBEBEB"></rect><rect x="426.51840000000004" y="304.656" width="14.623488" height="14.623488" rx="3.858976" fill="#9D9D9D"></rect><rect x="446.8288" y="304.656" width="14.623488" height="14.623488" rx="3.858976" fill="#D0D0D0"></rect><rect x="467.1392" y="304.656" width="14.623488" height="14.623488" rx="3.858976" fill="#787878"></rect><rect x="487.44960000000003" y="304.656" width="14.623488" height="14.623488" rx="3.858976" fill="#EBEBEB"></rect><rect x="0" y="324.9664" width="14.623488" height="14.623488" rx="3.858976" fill="#D0D0D0"></rect><rect x="20.3104" y="324.9664" width="14.623488" height="14.623488" rx="3.858976" fill="#D0D0D0"></rect><rect x="40.6208" y="324.9664" width="14.623488" height="14.623488" rx="3.858976" fill="#9D9D9D"></rect><rect x="60.931200000000004" y="324.9664" width="14.623488" height="14.623488" rx="3.858976" fill="#EBEBEB"></rect><rect x="81.2416" y="324.9664" width="14.623488" height="14.623488" rx="3.858976" fill="#D0D0D0"></rect><rect x="101.552" y="324.9664" width="14.623488" height="14.623488" rx="3.858976" fill="#9D9D9D"></rect><rect x="121.86240000000001" y="324.9664" width="14.623488" height="14.623488" rx="3.858976" fill="#787878"></rect><rect x="142.1728" y="324.9664" width="14.623488" height="14.623488" rx="3.858976" fill="#9D9D9D"></rect><rect x="162.4832" y="324.9664" width="14.623488" height="14.623488" rx="3.858976" fill="#787878"></rect><rect x="182.79360000000003" y="324.9664" width="14.623488" height="14.623488" rx="3.858976" fill="#D0D0D0"></rect><rect x="203.104" y="324.9664" width="14.623488" height="14.623488" rx="3.858976" fill="#9D9D9D"></rect><rect x="223.4144" y="324.9664" width="14.623488" height="14.623488" rx="3.858976" fill="#D0D0D0"></rect><rect x="243.72480000000002" y="324.9664" width="14.623488" height="14.623488" rx="3.858976" fill="#D0D0D0"></rect><rect x="264.03520000000003" y="324.9664" width="14.623488" height="14.623488" rx="3.858976" fill="#EBEBEB"></rect><rect x="284.3456" y="324.9664" width="14.623488" height="14.623488" rx="3.858976" fill="#787878"></rect><rect x="304.656" y="324.9664" width="14.623488" height="14.623488" rx="3.858976" fill="#9D9D9D"></rect><rect x="324.9664" y="324.9664" width="14.623488" height="14.623488" rx="3.858976" fill="#9D9D9D"></rect><rect x="345.27680000000004" y="324.9664" width="14.623488" height="14.623488" rx="3.858976" fill="#EBEBEB"></rect><rect x="365.58720000000005" y="324.9664" width="14.623488" height="14.623488" rx="3.858976" fill="#EBEBEB"></rect><rect x="385.8976" y="324.9664" width="14.623488" height="14.623488" rx="3.858976" fill="#D0D0D0"></rect><rect x="406.208" y="324.9664" width="14.623488" height="14.623488" rx="3.858976" fill="#787878"></rect><rect x="426.51840000000004" y="324.9664" width="14.623488" height="14.623488" rx="3.858976" fill="#D0D0D0"></rect><rect x="446.8288" y="324.9664" width="14.623488" height="14.623488" rx="3.858976" fill="#D0D0D0"></rect><rect x="467.1392" y="324.9664" width="14.623488" height="14.623488" rx="3.858976" fill="#9D9D9D"></rect><rect x="487.44960000000003" y="324.9664" width="14.623488" height="14.623488" rx="3.858976" fill="#9D9D9D"></rect><rect x="0" y="345.27680000000004" width="14.623488" height="14.623488" rx="3.858976" fill="#EBEBEB"></rect><rect x="20.3104" y="345.27680000000004" width="14.623488" height="14.623488" rx="3.858976" fill="#EBEBEB"></rect><rect x="40.6208" y="345.27680000000004" width="14.623488" height="14.623488" rx="3.858976" fill="#9D9D9D"></rect><rect x="60.931200000000004" y="345.27680000000004" width="14.623488" height="14.623488" rx="3.858976" fill="#9D9D9D"></rect><rect x="81.2416" y="345.27680000000004" width="14.623488" height="14.623488" rx="3.858976" fill="#EBEBEB"></rect><rect x="101.552" y="345.27680000000004" width="14.623488" height="14.623488" rx="3.858976" fill="#787878"></rect><rect x="121.86240000000001" y="345.27680000000004" width="14.623488" height="14.623488" rx="3.858976" fill="#EBEBEB"></rect><rect x="142.1728" y="345.27680000000004" width="14.623488" height="14.623488" rx="3.858976" fill="#EBEBEB"></rect><rect x="162.4832" y="345.27680000000004" width="14.623488" height="14.623488" rx="3.858976" fill="#EBEBEB"></rect><rect x="182.79360000000003" y="345.27680000000004" width="14.623488" height="14.623488" rx="3.858976" fill="#9D9D9D"></rect><rect x="203.104" y="345.27680000000004" width="14.623488" height="14.623488" rx="3.858976" fill="#9D9D9D"></rect><rect x="223.4144" y="345.27680000000004" width="14.623488" height="14.623488" rx="3.858976" fill="#EBEBEB"></rect><rect x="243.72480000000002" y="345.27680000000004" width="14.623488" height="14.623488" rx="3.858976" fill="#D0D0D0"></rect><rect x="264.03520000000003" y="345.27680000000004" width="14.623488" height="14.623488" rx="3.858976" fill="#9D9D9D"></rect><rect x="284.3456" y="345.27680000000004" width="14.623488" height="14.623488" rx="3.858976" fill="#9D9D9D"></rect><rect x="304.656" y="345.27680000000004" width="14.623488" height="14.623488" rx="3.858976" fill="#EBEBEB"></rect><rect x="324.9664" y="345.27680000000004" width="14.623488" height="14.623488" rx="3.858976" fill="#787878"></rect><rect x="345.27680000000004" y="345.27680000000004" width="14.623488" height="14.623488" rx="3.858976" fill="#9D9D9D"></rect><rect x="365.58720000000005" y="345.27680000000004" width="14.623488" height="14.623488" rx="3.858976" fill="#D0D0D0"></rect><rect x="385.8976" y="345.27680000000004" width="14.623488" height="14.623488" rx="3.858976" fill="#D0D0D0"></rect><rect x="406.208" y="345.27680000000004" width="14.623488" height="14.623488" rx="3.858976" fill="#787878"></rect><rect x="426.51840000000004" y="345.27680000000004" width="14.623488" height="14.623488" rx="3.858976" fill="#EBEBEB"></rect><rect x="446.8288" y="345.27680000000004" width="14.623488" height="14.623488" rx="3.858976" fill="#EBEBEB"></rect><rect x="467.1392" y="345.27680000000004" width="14.623488" height="14.623488" rx="3.858976" fill="#787878"></rect><rect x="487.44960000000003" y="345.27680000000004" width="14.623488" height="14.623488" rx="3.858976" fill="#787878"></rect><rect x="0" y="365.58720000000005" width="14.623488" height="14.623488" rx="3.858976" fill="#9D9D9D"></rect><rect x="20.3104" y="365.58720000000005" width="14.623488" height="14.623488" rx="3.858976" fill="#787878"></rect><rect x="40.6208" y="365.58720000000005" width="14.623488" height="14.623488" rx="3.858976" fill="#D0D0D0"></rect><rect x="60.931200000000004" y="365.58720000000005" width="14.623488" height="14.623488" rx="3.858976" fill="#EBEBEB"></rect><rect x="81.2416" y="365.58720000000005" width="14.623488" height="14.623488" rx="3.858976" fill="#9D9D9D"></rect><rect x="101.552" y="365.58720000000005" width="14.623488" height="14.623488" rx="3.858976" fill="#787878"></rect><rect x="121.86240000000001" y="365.58720000000005" width="14.623488" height="14.623488" rx="3.858976" fill="#787878"></rect><rect x="142.1728" y="365.58720000000005" width="14.623488" height="14.623488" rx="3.858976" fill="#787878"></rect><rect x="162.4832" y="365.58720000000005" width="14.623488" height="14.623488" rx="3.858976" fill="#9D9D9D"></rect><rect x="182.79360000000003" y="365.58720000000005" width="14.623488" height="14.623488" rx="3.858976" fill="#D0D0D0"></rect><rect x="203.104" y="365.58720000000005" width="14.623488" height="14.623488" rx="3.858976" fill="#D0D0D0"></rect><rect x="223.4144" y="365.58720000000005" width="14.623488" height="14.623488" rx="3.858976" fill="#9D9D9D"></rect><rect x="243.72480000000002" y="365.58720000000005" width="14.623488" height="14.623488" rx="3.858976" fill="#787878"></rect><rect x="264.03520000000003" y="365.58720000000005" width="14.623488" height="14.623488" rx="3.858976" fill="#787878"></rect><rect x="284.3456" y="365.58720000000005" width="14.623488" height="14.623488" rx="3.858976" fill="#787878"></rect><rect x="304.656" y="365.58720000000005" width="14.623488" height="14.623488" rx="3.858976" fill="#787878"></rect><rect x="324.9664" y="365.58720000000005" width="14.623488" height="14.623488" rx="3.858976" fill="#D0D0D0"></rect><rect x="345.27680000000004" y="365.58720000000005" width="14.623488" height="14.623488" rx="3.858976" fill="#EBEBEB"></rect><rect x="365.58720000000005" y="365.58720000000005" width="14.623488" height="14.623488" rx="3.858976" fill="#D0D0D0"></rect><rect x="385.8976" y="365.58720000000005" width="14.623488" height="14.623488" rx="3.858976" fill="#EBEBEB"></rect><rect x="406.208" y="365.58720000000005" width="14.623488" height="14.623488" rx="3.858976" fill="#D0D0D0"></rect><rect x="426.51840000000004" y="365.58720000000005" width="14.623488" height="14.623488" rx="3.858976" fill="#D0D0D0"></rect><rect x="446.8288" y="365.58720000000005" width="14.623488" height="14.623488" rx="3.858976" fill="#9D9D9D"></rect><rect x="467.1392" y="365.58720000000005" width="14.623488" height="14.623488" rx="3.858976" fill="#9D9D9D"></rect><rect x="487.44960000000003" y="365.58720000000005" width="14.623488" height="14.623488" rx="3.858976" fill="#787878"></rect><rect x="0" y="385.8976" width="14.623488" height="14.623488" rx="3.858976" fill="#9D9D9D"></rect><rect x="20.3104" y="385.8976" width="14.623488" height="14.623488" rx="3.858976" fill="#EBEBEB"></rect><rect x="40.6208" y="385.8976" width="14.623488" height="14.623488" rx="3.858976" fill="#787878"></rect><rect x="60.931200000000004" y="385.8976" width="14.623488" height="14.623488" rx="3.858976" fill="#787878"></rect><rect x="81.2416" y="385.8976" width="14.623488" height="14.623488" rx="3.858976" fill="#EBEBEB"></rect><rect x="101.552" y="385.8976" width="14.623488" height="14.623488" rx="3.858976" fill="#D0D0D0"></rect><rect x="121.86240000000001" y="385.8976" width="14.623488" height="14.623488" rx="3.858976" fill="#787878"></rect><rect x="142.1728" y="385.8976" width="14.623488" height="14.623488" rx="3.858976" fill="#EBEBEB"></rect><rect x="162.4832" y="385.8976" width="14.623488" height="14.623488" rx="3.858976" fill="#9D9D9D"></rect><rect x="182.79360000000003" y="385.8976" width="14.623488" height="14.623488" rx="3.858976" fill="#EBEBEB"></rect><rect x="203.104" y="385.8976" width="14.623488" height="14.623488" rx="3.858976" fill="#787878"></rect><rect x="223.4144" y="385.8976" width="14.623488" height="14.623488" rx="3.858976" fill="#787878"></rect><rect x="243.72480000000002" y="385.8976" width="14.623488" height="14.623488" rx="3.858976" fill="#EBEBEB"></rect><rect x="264.03520000000003" y="385.8976" width="14.623488" height="14.623488" rx="3.858976" fill="#EBEBEB"></rect><rect x="284.3456" y="385.8976" width="14.623488" height="14.623488" rx="3.858976" fill="#EBEBEB"></rect><rect x="304.656" y="385.8976" width="14.623488" height="14.623488" rx="3.858976" fill="#9D9D9D"></rect><rect x="324.9664" y="385.8976" width="14.623488" height="14.623488" rx="3.858976" fill="#787878"></rect><rect x="345.27680000000004" y="385.8976" width="14.623488" height="14.623488" rx="3.858976" fill="#787878"></rect><rect x="365.58720000000005" y="385.8976" width="14.623488" height="14.623488" rx="3.858976" fill="#EBEBEB"></rect><rect x="385.8976" y="385.8976" width="14.623488" height="14.623488" rx="3.858976" fill="#9D9D9D"></rect><rect x="406.208" y="385.8976" width="14.623488" height="14.623488" rx="3.858976" fill="#787878"></rect><rect x="426.51840000000004" y="385.8976" width="14.623488" height="14.623488" rx="3.858976" fill="#9D9D9D"></rect><rect x="446.8288" y="385.8976" width="14.623488" height="14.623488" rx="3.858976" fill="#EBEBEB"></rect><rect x="467.1392" y="385.8976" width="14.623488" height="14.623488" rx="3.858976" fill="#787878"></rect><rect x="487.44960000000003" y="385.8976" width="14.623488" height="14.623488" rx="3.858976" fill="#787878"></rect><rect x="0" y="406.208" width="14.623488" height="14.623488" rx="3.858976" fill="#D0D0D0"></rect><rect x="20.3104" y="406.208" width="14.623488" height="14.623488" rx="3.858976" fill="#787878"></rect><rect x="40.6208" y="406.208" width="14.623488" height="14.623488" rx="3.858976" fill="#EBEBEB"></rect><rect x="60.931200000000004" y="406.208" width="14.623488" height="14.623488" rx="3.858976" fill="#9D9D9D"></rect><rect x="81.2416" y="406.208" width="14.623488" height="14.623488" rx="3.858976" fill="#EBEBEB"></rect><rect x="101.552" y="406.208" width="14.623488" height="14.623488" rx="3.858976" fill="#EBEBEB"></rect><rect x="121.86240000000001" y="406.208" width="14.623488" height="14.623488" rx="3.858976" fill="#EBEBEB"></rect><rect x="142.1728" y="406.208" width="14.623488" height="14.623488" rx="3.858976" fill="#D0D0D0"></rect><rect x="162.4832" y="406.208" width="14.623488" height="14.623488" rx="3.858976" fill="#9D9D9D"></rect><rect x="182.79360000000003" y="406.208" width="14.623488" height="14.623488" rx="3.858976" fill="#787878"></rect><rect x="203.104" y="406.208" width="14.623488" height="14.623488" rx="3.858976" fill="#9D9D9D"></rect><rect x="223.4144" y="406.208" width="14.623488" height="14.623488" rx="3.858976" fill="#9D9D9D"></rect><rect x="243.72480000000002" y="406.208" width="14.623488" height="14.623488" rx="3.858976" fill="#787878"></rect><rect x="264.03520000000003" y="406.208" width="14.623488" height="14.623488" rx="3.858976" fill="#D0D0D0"></rect><rect x="284.3456" y="406.208" width="14.623488" height="14.623488" rx="3.858976" fill="#9D9D9D"></rect><rect x="304.656" y="406.208" width="14.623488" height="14.623488" rx="3.858976" fill="#D0D0D0"></rect><rect x="324.9664" y="406.208" width="14.623488" height="14.623488" rx="3.858976" fill="#EBEBEB"></rect><rect x="345.27680000000004" y="406.208" width="14.623488" height="14.623488" rx="3.858976" fill="#EBEBEB"></rect><rect x="365.58720000000005" y="406.208" width="14.623488" height="14.623488" rx="3.858976" fill="#787878"></rect><rect x="385.8976" y="406.208" width="14.623488" height="14.623488" rx="3.858976" fill="#EBEBEB"></rect><rect x="406.208" y="406.208" width="14.623488" height="14.623488" rx="3.858976" fill="#EBEBEB"></rect><rect x="426.51840000000004" y="406.208" width="14.623488" height="14.623488" rx="3.858976" fill="#9D9D9D"></rect><rect x="446.8288" y="406.208" width="14.623488" height="14.623488" rx="3.858976" fill="#EBEBEB"></rect><rect x="467.1392" y="406.208" width="14.623488" height="14.623488" rx="3.858976" fill="#EBEBEB"></rect><rect x="487.44960000000003" y="406.208" width="14.623488" height="14.623488" rx="3.858976" fill="#EBEBEB"></rect><rect x="0" y="426.51840000000004" width="14.623488" height="14.623488" rx="3.858976" fill="#787878"></rect><rect x="20.3104" y="426.51840000000004" width="14.623488" height="14.623488" rx="3.858976" fill="#EBEBEB"></rect><rect x="40.6208" y="426.51840000000004" width="14.623488" height="14.623488" rx="3.858976" fill="#D0D0D0"></rect><rect x="60.931200000000004" y="426.51840000000004" width="14.623488" height="14.623488" rx="3.858976" fill="#D0D0D0"></rect><rect x="81.2416" y="426.51840000000004" width="14.623488" height="14.623488" rx="3.858976" fill="#787878"></rect><rect x="101.552" y="426.51840000000004" width="14.623488" height="14.623488" rx="3.858976" fill="#D0D0D0"></rect><rect x="121.86240000000001" y="426.51840000000004" width="14.623488" height="14.623488" rx="3.858976" fill="#787878"></rect><rect x="142.1728" y="426.51840000000004" width="14.623488" height="14.623488" rx="3.858976" fill="#D0D0D0"></rect><rect x="162.4832" y="426.51840000000004" width="14.623488" height="14.623488" rx="3.858976" fill="#787878"></rect><rect x="182.79360000000003" y="426.51840000000004" width="14.623488" height="14.623488" rx="3.858976" fill="#787878"></rect><rect x="203.104" y="426.51840000000004" width="14.623488" height="14.623488" rx="3.858976" fill="#787878"></rect><rect x="223.4144" y="426.51840000000004" width="14.623488" height="14.623488" rx="3.858976" fill="#D0D0D0"></rect><rect x="243.72480000000002" y="426.51840000000004" width="14.623488" height="14.623488" rx="3.858976" fill="#787878"></rect><rect x="264.03520000000003" y="426.51840000000004" width="14.623488" height="14.623488" rx="3.858976" fill="#787878"></rect><rect x="284.3456" y="426.51840000000004" width="14.623488" height="14.623488" rx="3.858976" fill="#9D9D9D"></rect><rect x="304.656" y="426.51840000000004" width="14.623488" height="14.623488" rx="3.858976" fill="#EBEBEB"></rect><rect x="324.9664" y="426.51840000000004" width="14.623488" height="14.623488" rx="3.858976" fill="#787878"></rect><rect x="345.27680000000004" y="426.51840000000004" width="14.623488" height="14.623488" rx="3.858976" fill="#9D9D9D"></rect><rect x="365.58720000000005" y="426.51840000000004" width="14.623488" height="14.623488" rx="3.858976" fill="#9D9D9D"></rect><rect x="385.8976" y="426.51840000000004" width="14.623488" height="14.623488" rx="3.858976" fill="#EBEBEB"></rect><rect x="406.208" y="426.51840000000004" width="14.623488" height="14.623488" rx="3.858976" fill="#EBEBEB"></rect><rect x="426.51840000000004" y="426.51840000000004" width="14.623488" height="14.623488" rx="3.858976" fill="#EBEBEB"></rect><rect x="446.8288" y="426.51840000000004" width="14.623488" height="14.623488" rx="3.858976" fill="#787878"></rect><rect x="467.1392" y="426.51840000000004" width="14.623488" height="14.623488" rx="3.858976" fill="#D0D0D0"></rect><rect x="487.44960000000003" y="426.51840000000004" width="14.623488" height="14.623488" rx="3.858976" fill="#D0D0D0"></rect><rect x="0" y="446.8288" width="14.623488" height="14.623488" rx="3.858976" fill="#9D9D9D"></rect><rect x="20.3104" y="446.8288" width="14.623488" height="14.623488" rx="3.858976" fill="#EBEBEB"></rect><rect x="40.6208" y="446.8288" width="14.623488" height="14.623488" rx="3.858976" fill="#787878"></rect><rect x="60.931200000000004" y="446.8288" width="14.623488" height="14.623488" rx="3.858976" fill="#EBEBEB"></rect><rect x="81.2416" y="446.8288" width="14.623488" height="14.623488" rx="3.858976" fill="#9D9D9D"></rect><rect x="101.552" y="446.8288" width="14.623488" height="14.623488" rx="3.858976" fill="#9D9D9D"></rect><rect x="121.86240000000001" y="446.8288" width="14.623488" height="14.623488" rx="3.858976" fill="#9D9D9D"></rect><rect x="142.1728" y="446.8288" width="14.623488" height="14.623488" rx="3.858976" fill="#D0D0D0"></rect><rect x="162.4832" y="446.8288" width="14.623488" height="14.623488" rx="3.858976" fill="#D0D0D0"></rect><rect x="182.79360000000003" y="446.8288" width="14.623488" height="14.623488" rx="3.858976" fill="#EBEBEB"></rect><rect x="203.104" y="446.8288" width="14.623488" height="14.623488" rx="3.858976" fill="#EBEBEB"></rect><rect x="223.4144" y="446.8288" width="14.623488" height="14.623488" rx="3.858976" fill="#787878"></rect><rect x="243.72480000000002" y="446.8288" width="14.623488" height="14.623488" rx="3.858976" fill="#D0D0D0"></rect><rect x="264.03520000000003" y="446.8288" width="14.623488" height="14.623488" rx="3.858976" fill="#9D9D9D"></rect><rect x="284.3456" y="446.8288" width="14.623488" height="14.623488" rx="3.858976" fill="#787878"></rect><rect x="304.656" y="446.8288" width="14.623488" height="14.623488" rx="3.858976" fill="#9D9D9D"></rect><rect x="324.9664" y="446.8288" width="14.623488" height="14.623488" rx="3.858976" fill="#787878"></rect><rect x="345.27680000000004" y="446.8288" width="14.623488" height="14.623488" rx="3.858976" fill="#D0D0D0"></rect><rect x="365.58720000000005" y="446.8288" width="14.623488" height="14.623488" rx="3.858976" fill="#D0D0D0"></rect><rect x="385.8976" y="446.8288" width="14.623488" height="14.623488" rx="3.858976" fill="#EBEBEB"></rect><rect x="406.208" y="446.8288" width="14.623488" height="14.623488" rx="3.858976" fill="#9D9D9D"></rect><rect x="426.51840000000004" y="446.8288" width="14.623488" height="14.623488" rx="3.858976" fill="#EBEBEB"></rect><rect x="446.8288" y="446.8288" width="14.623488" height="14.623488" rx="3.858976" fill="#9D9D9D"></rect><rect x="467.1392" y="446.8288" width="14.623488" height="14.623488" rx="3.858976" fill="#787878"></rect><rect x="487.44960000000003" y="446.8288" width="14.623488" height="14.623488" rx="3.858976" fill="#EBEBEB"></rect><rect x="0" y="467.1392" width="14.623488" height="14.623488" rx="3.858976" fill="#EBEBEB"></rect><rect x="20.3104" y="467.1392" width="14.623488" height="14.623488" rx="3.858976" fill="#787878"></rect><rect x="40.6208" y="467.1392" width="14.623488" height="14.623488" rx="3.858976" fill="#EBEBEB"></rect><rect x="60.931200000000004" y="467.1392" width="14.623488" height="14.623488" rx="3.858976" fill="#9D9D9D"></rect><rect x="81.2416" y="467.1392" width="14.623488" height="14.623488" rx="3.858976" fill="#D0D0D0"></rect><rect x="101.552" y="467.1392" width="14.623488" height="14.623488" rx="3.858976" fill="#787878"></rect><rect x="121.86240000000001" y="467.1392" width="14.623488" height="14.623488" rx="3.858976" fill="#EBEBEB"></rect><rect x="142.1728" y="467.1392" width="14.623488" height="14.623488" rx="3.858976" fill="#D0D0D0"></rect><rect x="162.4832" y="467.1392" width="14.623488" height="14.623488" rx="3.858976" fill="#9D9D9D"></rect><rect x="182.79360000000003" y="467.1392" width="14.623488" height="14.623488" rx="3.858976" fill="#9D9D9D"></rect><rect x="203.104" y="467.1392" width="14.623488" height="14.623488" rx="3.858976" fill="#EBEBEB"></rect><rect x="223.4144" y="467.1392" width="14.623488" height="14.623488" rx="3.858976" fill="#D0D0D0"></rect><rect x="243.72480000000002" y="467.1392" width="14.623488" height="14.623488" rx="3.858976" fill="#9D9D9D"></rect><rect x="264.03520000000003" y="467.1392" width="14.623488" height="14.623488" rx="3.858976" fill="#9D9D9D"></rect><rect x="284.3456" y="467.1392" width="14.623488" height="14.623488" rx="3.858976" fill="#9D9D9D"></rect><rect x="304.656" y="467.1392" width="14.623488" height="14.623488" rx="3.858976" fill="#787878"></rect><rect x="324.9664" y="467.1392" width="14.623488" height="14.623488" rx="3.858976" fill="#D0D0D0"></rect><rect x="345.27680000000004" y="467.1392" width="14.623488" height="14.623488" rx="3.858976" fill="#787878"></rect><rect x="365.58720000000005" y="467.1392" width="14.623488" height="14.623488" rx="3.858976" fill="#EBEBEB"></rect><rect x="385.8976" y="467.1392" width="14.623488" height="14.623488" rx="3.858976" fill="#787878"></rect><rect x="406.208" y="467.1392" width="14.623488" height="14.623488" rx="3.858976" fill="#EBEBEB"></rect><rect x="426.51840000000004" y="467.1392" width="14.623488" height="14.623488" rx="3.858976" fill="#D0D0D0"></rect><rect x="446.8288" y="467.1392" width="14.623488" height="14.623488" rx="3.858976" fill="#787878"></rect><rect x="467.1392" y="467.1392" width="14.623488" height="14.623488" rx="3.858976" fill="#D0D0D0"></rect><rect x="487.44960000000003" y="467.1392" width="14.623488" height="14.623488" rx="3.858976" fill="#787878"></rect><rect x="0" y="487.44960000000003" width="14.623488" height="14.623488" rx="3.858976" fill="#EBEBEB"></rect><rect x="20.3104" y="487.44960000000003" width="14.623488" height="14.623488" rx="3.858976" fill="#9D9D9D"></rect><rect x="40.6208" y="487.44960000000003" width="14.623488" height="14.623488" rx="3.858976" fill="#9D9D9D"></rect><rect x="60.931200000000004" y="487.44960000000003" width="14.623488" height="14.623488" rx="3.858976" fill="#D0D0D0"></rect><rect x="81.2416" y="487.44960000000003" width="14.623488" height="14.623488" rx="3.858976" fill="#787878"></rect><rect x="101.552" y="487.44960000000003" width="14.623488" height="14.623488" rx="3.858976" fill="#787878"></rect><rect x="121.86240000000001" y="487.44960000000003" width="14.623488" height="14.623488" rx="3.858976" fill="#787878"></rect><rect x="142.1728" y="487.44960000000003" width="14.623488" height="14.623488" rx="3.858976" fill="#787878"></rect><rect x="162.4832" y="487.44960000000003" width="14.623488" height="14.623488" rx="3.858976" fill="#9D9D9D"></rect><rect x="182.79360000000003" y="487.44960000000003" width="14.623488" height="14.623488" rx="3.858976" fill="#787878"></rect><rect x="203.104" y="487.44960000000003" width="14.623488" height="14.623488" rx="3.858976" fill="#D0D0D0"></rect><rect x="223.4144" y="487.44960000000003" width="14.623488" height="14.623488" rx="3.858976" fill="#787878"></rect><rect x="243.72480000000002" y="487.44960000000003" width="14.623488" height="14.623488" rx="3.858976" fill="#D0D0D0"></rect><rect x="264.03520000000003" y="487.44960000000003" width="14.623488" height="14.623488" rx="3.858976" fill="#787878"></rect><rect x="284.3456" y="487.44960000000003" width="14.623488" height="14.623488" rx="3.858976" fill="#787878"></rect><rect x="304.656" y="487.44960000000003" width="14.623488" height="14.623488" rx="3.858976" fill="#787878"></rect><rect x="324.9664" y="487.44960000000003" width="14.623488" height="14.623488" rx="3.858976" fill="#787878"></rect><rect x="345.27680000000004" y="487.44960000000003" width="14.623488" height="14.623488" rx="3.858976" fill="#D0D0D0"></rect><rect x="365.58720000000005" y="487.44960000000003" width="14.623488" height="14.623488" rx="3.858976" fill="#9D9D9D"></rect><rect x="385.8976" y="487.44960000000003" width="14.623488" height="14.623488" rx="3.858976" fill="#D0D0D0"></rect><rect x="406.208" y="487.44960000000003" width="14.623488" height="14.623488" rx="3.858976" fill="#9D9D9D"></rect><rect x="426.51840000000004" y="487.44960000000003" width="14.623488" height="14.623488" rx="3.858976" fill="#9D9D9D"></rect><rect x="446.8288" y="487.44960000000003" width="14.623488" height="14.623488" rx="3.858976" fill="#9D9D9D"></rect><rect x="467.1392" y="487.44960000000003" width="14.623488" height="14.623488" rx="3.858976" fill="#9D9D9D"></rect><rect x="487.44960000000003" y="487.44960000000003" width="14.623488" height="14.623488" rx="3.858976" fill="#EBEBEB"></rect><rect x="0" y="507.76000000000005" width="14.623488" height="14.623488" rx="3.858976" fill="#787878"></rect><rect x="20.3104" y="507.76000000000005" width="14.623488" height="14.623488" rx="3.858976" fill="#D0D0D0"></rect><rect x="40.6208" y="507.76000000000005" width="14.623488" height="14.623488" rx="3.858976" fill="#EBEBEB"></rect><rect x="60.931200000000004" y="507.76000000000005" width="14.623488" height="14.623488" rx="3.858976" fill="#EBEBEB"></rect><rect x="81.2416" y="507.76000000000005" width="14.623488" height="14.623488" rx="3.858976" fill="#D0D0D0"></rect><rect x="101.552" y="507.76000000000005" width="14.623488" height="14.623488" rx="3.858976" fill="#D0D0D0"></rect><rect x="121.86240000000001" y="507.76000000000005" width="14.623488" height="14.623488" rx="3.858976" fill="#9D9D9D"></rect><rect x="142.1728" y="507.76000000000005" width="14.623488" height="14.623488" rx="3.858976" fill="#787878"></rect><rect x="162.4832" y="507.76000000000005" width="14.623488" height="14.623488" rx="3.858976" fill="#D0D0D0"></rect><rect x="182.79360000000003" y="507.76000000000005" width="14.623488" height="14.623488" rx="3.858976" fill="#D0D0D0"></rect><rect x="203.104" y="507.76000000000005" width="14.623488" height="14.623488" rx="3.858976" fill="#D0D0D0"></rect><rect x="223.4144" y="507.76000000000005" width="14.623488" height="14.623488" rx="3.858976" fill="#9D9D9D"></rect><rect x="243.72480000000002" y="507.76000000000005" width="14.623488" height="14.623488" rx="3.858976" fill="#D0D0D0"></rect><rect x="264.03520000000003" y="507.76000000000005" width="14.623488" height="14.623488" rx="3.858976" fill="#EBEBEB"></rect><rect x="284.3456" y="507.76000000000005" width="14.623488" height="14.623488" rx="3.858976" fill="#787878"></rect><rect x="304.656" y="507.76000000000005" width="14.623488" height="14.623488" rx="3.858976" fill="#787878"></rect><rect x="324.9664" y="507.76000000000005" width="14.623488" height="14.623488" rx="3.858976" fill="#9D9D9D"></rect><rect x="345.27680000000004" y="507.76000000000005" width="14.623488" height="14.623488" rx="3.858976" fill="#9D9D9D"></rect><rect x="365.58720000000005" y="507.76000000000005" width="14.623488" height="14.623488" rx="3.858976" fill="#D0D0D0"></rect><rect x="385.8976" y="507.76000000000005" width="14.623488" height="14.623488" rx="3.858976" fill="#D0D0D0"></rect><rect x="406.208" y="507.76000000000005" width="14.623488" height="14.623488" rx="3.858976" fill="#787878"></rect><rect x="426.51840000000004" y="507.76000000000005" width="14.623488" height="14.623488" rx="3.858976" fill="#787878"></rect><rect x="446.8288" y="507.76000000000005" width="14.623488" height="14.623488" rx="3.858976" fill="#9D9D9D"></rect><rect x="467.1392" y="507.76000000000005" width="14.623488" height="14.623488" rx="3.858976" fill="#EBEBEB"></rect><rect x="487.44960000000003" y="507.76000000000005" width="14.623488" height="14.623488" rx="3.858976" fill="#EBEBEB"></rect></svg>
